<svg width="40" height="40" viewBox="0 0 40 40" fill="none" xmlns="http://www.w3.org/2000/svg">
<circle cx="20" cy="20" r="20" fill="#FFCC00"/>
<g clip-path="url(#clip0_18_2824)">
<path d="M27.0094 22.0096L23.9406 20.6939C23.2716 20.4039 22.4831 20.5968 22.0281 21.1611L21.1706 22.208C19.7712 21.4033 18.5991 20.2314 17.7956 18.8611L18.8441 18.0024C19.4037 17.5455 19.5969 16.7617 19.3134 16.0946L17.9906 12.9855C17.6731 12.2605 16.8863 11.8649 16.1197 12.0421L13.2681 12.7002C12.5219 12.8708 12 13.5261 12 14.2936C12 21.853 18.1469 27.9999 25.7063 27.9999C26.4738 27.9999 27.1291 27.4783 27.2719 26.7333L27.93 23.8789C28.1375 23.1096 27.7375 22.3221 27.0094 22.0096ZM26.4969 23.5408L25.8378 26.3974C25.8232 26.4317 25.7719 26.4999 25.706 26.4999C18.9747 26.4999 13.4997 21.0249 13.4997 14.2936C13.4997 14.2282 13.5402 14.177 13.6042 14.1623L16.4586 13.5036C16.4684 13.5011 16.4786 13.5001 16.4884 13.5001C16.5426 13.5001 16.5933 13.5329 16.6148 13.5817L17.9317 16.6545C17.9552 16.7097 17.9395 16.7741 17.8927 16.8127L16.3688 18.0346C16.0992 18.2552 16.0172 18.6327 16.1705 18.9452C17.2021 21.0461 18.9286 22.7733 21.0299 23.8046C21.3142 23.9579 21.7202 23.8758 21.9411 23.6063L23.1914 22.0791C23.2261 22.0352 23.291 22.0186 23.3453 22.044L26.4159 23.3593C26.475 23.4127 26.5094 23.4783 26.4969 23.5408Z" fill="white"/>
</g>
<defs>
<clipPath id="clip0_18_2824">
<rect width="16" height="16" fill="white" transform="translate(12 12)"/>
</clipPath>
</defs>
</svg>
