<svg width="60" height="60" viewBox="0 0 60 60" fill="none" xmlns="http://www.w3.org/2000/svg">
<circle cx="30" cy="30" r="30" fill="white"/>
<g clip-path="url(#clip0_12_2624)">
<path d="M40.5141 33.0141L35.9109 31.0407C34.9073 30.6057 33.7247 30.895 33.0422 31.7415L31.7559 33.3118C29.6569 32.1048 27.8986 30.347 26.6934 28.2915L28.2661 27.0034C29.1056 26.3181 29.3953 25.1424 28.9702 24.1417L26.9859 19.4781C26.5097 18.3906 25.3294 17.7971 24.1795 18.0629L19.9022 19.0501C18.7828 19.306 18 20.289 18 21.4402C18 32.7793 27.2203 41.9996 38.5594 41.9996C39.7106 41.9996 40.6936 41.2173 40.9078 40.0998L41.895 35.8182C42.2063 34.6642 41.6063 33.4829 40.5141 33.0141ZM39.7453 35.311L38.7567 39.5959C38.7348 39.6474 38.6579 39.7497 38.559 39.7497C28.4621 39.7497 20.2496 31.5372 20.2496 21.4403C20.2496 21.3421 20.3104 21.2653 20.4063 21.2433L24.6879 20.2551C24.7025 20.2515 24.7179 20.25 24.7326 20.25C24.8138 20.25 24.89 20.2991 24.9223 20.3723L26.8976 24.9815C26.9327 25.0643 26.9093 25.161 26.839 25.2188L24.5531 27.0517C24.1488 27.3827 24.0258 27.9488 24.2558 28.4176C25.8031 31.569 28.3929 34.1598 31.5448 35.7066C31.9714 35.9366 32.5803 35.8136 32.9117 35.4093L34.7872 33.1185C34.8391 33.0526 34.9365 33.0276 35.0179 33.0658L39.6238 35.0387C39.7125 35.1188 39.7641 35.2173 39.7453 35.311Z" fill="#FFCC00"/>
</g>
<defs>
<clipPath id="clip0_12_2624">
<rect width="24" height="24" fill="white" transform="translate(18 18)"/>
</clipPath>
</defs>
</svg>
